<?xml version="1.0" encoding="UTF-8" standalone="no"?>

<svg
   id="svg4749"
   viewBox="0 0 64.000002 64"
   version="1.1"
   sodipodi:docname="felixleroux.svg"
   width="64"
   height="64"
   inkscape:version="1.2.1 (9c6d41e410, 2022-07-14)"
   xmlns:inkscape="http://www.inkscape.org/namespaces/inkscape"
   xmlns:sodipodi="http://sodipodi.sourceforge.net/DTD/sodipodi-0.dtd"
   xmlns:xlink="http://www.w3.org/1999/xlink"
   xmlns="http://www.w3.org/2000/svg">
  
  <path
     style="fill:#ffffff;stroke:#ffffff;stroke-width:0.276088;image-rendering:auto"
     d="M 26.776048,63.475048 C 13.334984,61.221804 2.6569244,50.437668 0.50040294,36.938377 0.13293594,34.638126 0.13020134,29.436783 0.49528884,27.162918 1.5829533,20.388178 4.3869592,14.842353 9.207015,9.9326787 13.163224,5.9029129 16.96232,3.4866646 21.991272,1.8018106 40.511286,-4.4029652 60.368561,7.7191942 63.468171,27.12198 c 0.36951,2.313047 0.36951,7.503352 0,9.816397 -2.782056,17.414974 -19.402244,29.43512 -36.692098,26.536671 z"
     id="path614" />
  <g
     id="layer1"
     transform="matrix(0.06409223,0,0,0.06409223,12.89523,-1.1863627)">
    <path
       id="path4420"
       style="fill:#000000"
       d="M 51.53,940.77 C 33.157,919.61 24.092,887.54 27.615,856.68 31.238,820.91 59.248,792.71 51.53,754.03 47.701,669.77 20.063,596.79 44.728,519.88 70.749,411.6 157.648,378.7 220.508,327.33 c 14.983,-5.1538 26.065,-15.681 36.088,-28.072 11.753,-9.1929 21.965,-20.53 29.878,-31.467 9.0474,-27.524 4.3,-61.767 18.719,-88.708 10.038,-17.346 18.474,-36.48 33,-50.217 65.693,-16.152 60.261,-82.172 84.28,-90.888 34.18,-9.4592 11.324,61.082 26.658,82.712 26.441,1.1116 45.114,15.76 58.844,34.23 8.2099,18.714 35.014,16.848 39.653,35.29 3.9579,16.806 -9.1352,38.478 -21.629,51.527 -10.986,12.288 -27.134,14.366 -35.3,28.76 -12.708,28.471 4.273,67.531 5.3245,99.514 -1.6901,33.542 2.8102,70.758 -17.335,97.78 -3.0206,21.83 -23.195,31.623 -30.341,51.688 -16.413,28.237 -42.353,77.827 -41.312,111.55 0.33069,52.629 19.951,115.32 27.888,167.24 18.694,9.2031 57.595,-0.39081 51.941,22.344 -24.918,41.426 -170.65,34.301 -198.64,36.821 -58.195,-1.4881 -118,2.1668 -174.78,-6.8493 -33.601,-10.436 -39.406,16.642 -31.028,45.483 8.0301,15.138 19.151,27.569 34.168,36.539 25.625,9.5963 52.35,21.575 82.232,20.793 32.172,5.176 59.141,1.054 93.075,-2.4549 20.675,-11.455 108.15,-7.4499 61.448,17.791 -94.43,42.48 -258.63,33.88 -301.8,-27.95 z" />
  </g>
</svg>
